<svg width="88" height="116" viewBox="0 0 88 116" fill="none" xmlns="http://www.w3.org/2000/svg">
<path d="M87.4294 111.168C87.5708 110.93 87.4932 110.624 87.256 110.482L83.3907 108.178C83.1535 108.036 82.8466 108.114 82.7052 108.351C82.5638 108.588 82.6415 108.895 82.8786 109.037L86.3144 111.085L84.2662 114.521C84.1248 114.758 84.2024 115.065 84.4396 115.206C84.6768 115.348 84.9837 115.27 85.1251 115.033L87.4294 111.168ZM5.51575 0.786904C-0.869839 25.578 -0.520547 42.2275 3.48433 53.0153C7.50402 63.8431 15.1921 68.7236 23.2991 69.9683C31.3701 71.2076 39.8346 68.8437 45.5022 65.2479C48.3332 63.4517 50.515 61.3175 51.5807 59.119C52.1162 58.0144 52.3762 56.8798 52.2781 55.7611C52.1795 54.6379 51.7226 53.5641 50.8786 52.5851L50.1212 53.2381C50.8398 54.0716 51.2032 54.951 51.2819 55.8485C51.361 56.7506 51.1552 57.7043 50.6809 58.6828C49.7271 60.6503 47.7136 62.6605 44.9665 64.4035C39.4778 67.8858 31.2548 70.1782 23.4508 68.9799C15.6828 67.7872 8.30838 63.1364 4.42182 52.6673C0.520451 42.1583 0.119743 25.7452 6.48415 1.03634L5.51575 0.786904ZM50.8786 52.5851C50.033 51.6042 49.0618 51.0435 48.0013 50.9082C46.9481 50.7738 45.8728 51.0673 44.8261 51.6685C42.7478 52.8621 40.664 55.3344 38.8234 58.5624C35.1317 65.0367 32.2797 74.7967 32.4375 84.3574C32.5953 93.9214 35.7714 103.374 44.244 109.084C52.704 114.785 66.312 116.662 87.1226 111.396L86.8773 110.427C66.1879 115.662 52.9209 113.726 44.8028 108.255C36.6973 102.793 33.592 93.7144 33.4374 84.3409C33.2826 74.964 36.0869 65.3803 39.6921 59.0577C41.4999 55.8872 43.4748 53.5978 45.3242 52.5356C46.2413 52.0089 47.0972 51.8009 47.8748 51.9001C48.6451 51.9985 49.4044 52.4065 50.1212 53.2381L50.8786 52.5851Z" fill="white"/>
</svg>
