<svg width="99" height="71" fill="none" xmlns="http://www.w3.org/2000/svg"><path d="M.342 61.026a.5.5 0 0 0-.316.632l1.423 4.27a.5.5 0 0 0 .948-.317l-1.265-3.795 3.795-1.265a.5.5 0 1 0-.316-.948l-4.27 1.423Zm-.066.921c.905.453 1.808.886 2.708 1.3l.418-.908a91.8 91.8 0 0 1-2.678-1.286l-.448.894Zm8.187 3.602a81.997 81.997 0 0 0 5.63 1.914l.286-.957a81.023 81.023 0 0 1-5.56-1.891l-.356.934Zm11.386 3.403c1.971.428 3.924.77 5.857 1.028l.132-.991a72.22 72.22 0 0 1-5.776-1.014l-.213.977Zm11.776 1.566a67.72 67.72 0 0 0 5.961.025l-.04-1c-1.93.078-3.888.071-5.872-.024l-.049.999Zm11.9-.48c1.99-.261 3.946-.61 5.863-1.04l-.22-.976a64.336 64.336 0 0 1-5.773 1.024l.13.991Zm11.603-2.61a65.158 65.158 0 0 0 5.583-2.092l-.394-.92a64.151 64.151 0 0 1-5.497 2.06l.308.952Zm10.947-4.682a65.928 65.928 0 0 0 5.104-3.063l-.553-.833a64.9 64.9 0 0 1-5.026 3.016l.475.88Zm9.918-6.578a66.035 66.035 0 0 0 4.475-3.93l-.694-.721a65.07 65.07 0 0 1-4.406 3.87l.625.781Zm8.576-8.25a64.141 64.141 0 0 0 3.689-4.682l-.814-.581a63.115 63.115 0 0 1-3.631 4.608l.756.654Zm6.918-9.686a59.368 59.368 0 0 0 2.727-5.306l-.911-.412a58.379 58.379 0 0 1-2.682 5.217l.866.5Zm4.89-10.859a52.429 52.429 0 0 0 1.544-5.769l-.98-.202a51.416 51.416 0 0 1-1.514 5.659l.95.312Zm2.397-11.676a45.39 45.39 0 0 0 .096-5.975l-.999.05c.098 1.94.065 3.891-.094 5.844l.996.081Zm-.618-11.91A41.312 41.312 0 0 0 97.483.87l-.966.26c.254.943.473 1.892.657 2.847l.982-.19Z" fill="#ADADAD"/></svg>