<svg width="24" height="24" fill="none" xmlns="http://www.w3.org/2000/svg"><path d="M20.54 20.115c.337-.322.596-.713.76-1.144a3.047 3.047 0 0 0-.234-2.649 3.16 3.16 0 0 0-.95-1.001 3.3 3.3 0 0 0-2.695-.442 3.243 3.243 0 0 0-1.233.643c-.358.3-.643.673-.836 1.092a4.826 4.826 0 0 0-.842-.41c.303-.29.544-.636.709-1.017.164-.382.249-.791.248-1.205 0-.047-.013-.09-.015-.137.345-.212 1.167-.59 2.579-.634 1.917.06 2.748.746 2.776.774a.715.715 0 0 0 1.14-.23.668.668 0 0 0-.152-.746c-.068-.066-.467-.414-1.253-.716.336-.323.596-.714.76-1.145a3.047 3.047 0 0 0-.235-2.649 3.16 3.16 0 0 0-.949-1.001 3.3 3.3 0 0 0-2.695-.442 3.243 3.243 0 0 0-1.234.643c-.358.3-.643.673-.836 1.092a4.825 4.825 0 0 0-.843-.415c.452-.431.763-.982.895-1.584a3.057 3.057 0 0 0-.152-1.802 3.152 3.152 0 0 0-1.148-1.42 3.293 3.293 0 0 0-3.557-.095A3.166 3.166 0 0 0 9.32 4.83a3.06 3.06 0 0 0-.254 1.791c.098.608.378 1.175.805 1.63a5.61 5.61 0 0 0-.842.327 3.142 3.142 0 0 0-.874-.997 3.244 3.244 0 0 0-1.217-.56c-.442-.1-.9-.108-1.345-.023a3.25 3.25 0 0 0-1.238.516 3.15 3.15 0 0 0-.91.965 3.037 3.037 0 0 0-.283 2.546c.141.419.372.805.678 1.13-1.053.323-1.558.777-1.637.853a.665.665 0 0 0-.148.744c.053.124.143.23.259.304a.716.716 0 0 0 .39.114c.18 0 .354-.066.485-.186.01-.008.831-.714 2.78-.774 1.917.06 2.748.746 2.776.774a.693.693 0 0 0 .305.159c.037.714.327 1.394.82 1.924-.289.089-.57.2-.841.333a3.142 3.142 0 0 0-.874-.996 3.245 3.245 0 0 0-1.217-.56 3.291 3.291 0 0 0-2.583.493 3.15 3.15 0 0 0-.91.964 3.037 3.037 0 0 0-.283 2.546c.141.42.372.805.678 1.132-1.053.322-1.558.776-1.637.851a.665.665 0 0 0-.148.744c.053.125.143.23.259.305a.716.716 0 0 0 .39.114c.18 0 .354-.066.485-.187.01-.007.831-.713 2.78-.773 1.917.06 2.748.746 2.776.773a.714.714 0 0 0 1.138-.23.668.668 0 0 0-.152-.746c-.067-.066-.466-.414-1.252-.716.303-.29.544-.635.708-1.017.164-.381.249-.791.248-1.205 0-.047-.012-.09-.014-.136.345-.213 1.167-.59 2.579-.634 1.917.06 2.748.746 2.776.773a.693.693 0 0 0 .305.16c.037.713.327 1.393.82 1.924-1.052.322-1.557.776-1.636.851a.666.666 0 0 0-.148.744c.053.125.143.23.259.305a.716.716 0 0 0 .39.114c.18 0 .354-.066.485-.187.01-.007.83-.713 2.78-.773 1.917.06 2.748.746 2.776.773a.714.714 0 0 0 1.138-.23.668.668 0 0 0-.152-.746c-.067-.066-.466-.414-1.252-.716ZM6.218 16.133c.358 0 .708.103 1.005.297.298.193.53.468.667.79.137.321.173.675.103 1.017-.07.341-.242.655-.495.901a1.826 1.826 0 0 1-.927.482 1.856 1.856 0 0 1-1.046-.1 1.8 1.8 0 0 1-.812-.648 1.727 1.727 0 0 1-.305-.979c0-.466.192-.914.531-1.244.34-.33.8-.515 1.279-.516Zm4.217-2.15c0-.35.107-.69.305-.979a1.8 1.8 0 0 1 .813-.648c.33-.134.694-.168 1.045-.1.351.067.674.235.927.481s.425.56.495.902c.07.341.034.695-.103 1.017a1.772 1.772 0 0 1-.667.79 1.838 1.838 0 0 1-2.28-.222 1.74 1.74 0 0 1-.528-1.242h-.007Zm7.847-5.673c.358 0 .708.103 1.006.297.297.193.53.468.666.79.137.322.173.676.103 1.017-.07.342-.242.655-.495.902a1.826 1.826 0 0 1-.927.481 1.857 1.857 0 0 1-1.045-.1 1.8 1.8 0 0 1-.812-.648 1.727 1.727 0 0 1-.305-.978c0-.467.19-.915.53-1.245.34-.33.8-.515 1.28-.516Zm-6.03-3.912c.357 0 .707.103 1.005.296.297.194.53.468.666.79.137.322.173.676.103 1.017-.07.342-.242.655-.495.902a1.826 1.826 0 0 1-.926.482c-.35.068-.715.033-1.045-.1a1.8 1.8 0 0 1-.813-.648 1.727 1.727 0 0 1-.305-.978c0-.467.19-.915.53-1.245.339-.33.8-.516 1.28-.516ZM6.216 8.31c.358 0 .708.103 1.006.296.298.193.53.468.668.79.137.32.173.675.104 1.017-.07.341-.242.655-.495.902a1.826 1.826 0 0 1-.927.482 1.857 1.857 0 0 1-1.045-.1 1.8 1.8 0 0 1-.813-.648 1.726 1.726 0 0 1 .224-2.222c.34-.33.799-.516 1.278-.517Zm2.26 3.979c.303-.29.543-.636.708-1.017.164-.382.248-.791.247-1.205 0-.047-.011-.09-.014-.137.345-.212 1.167-.59 2.58-.634 1.916.06 2.747.746 2.775.774a.691.691 0 0 0 .306.159c.037.714.326 1.394.82 1.924-.29.089-.571.2-.842.333a3.15 3.15 0 0 0-1.228-1.228 3.267 3.267 0 0 0-3.383.126 3.13 3.13 0 0 0-1.127 1.315 4.822 4.822 0 0 0-.84-.406l-.003-.004Zm9.802 3.84c.358 0 .707.104 1.005.297.298.193.53.468.667.79s.172.676.103 1.017c-.07.342-.243.655-.496.902a1.827 1.827 0 0 1-.926.481 1.857 1.857 0 0 1-1.046-.1 1.8 1.8 0 0 1-.812-.648 1.726 1.726 0 0 1-.305-.978 1.74 1.74 0 0 1 .533-1.243c.34-.33.8-.514 1.28-.514l-.003-.004Z" fill="#fff"/></svg>