<svg width="24" height="24" fill="none" xmlns="http://www.w3.org/2000/svg"><path fill-rule="evenodd" clip-rule="evenodd" d="M12 19.6a7.6 7.6 0 1 0 0-15.2 7.6 7.6 0 0 0 0 15.2Zm0 1.4a9 9 0 1 0 0-18 9 9 0 0 0 0 18Zm3.945-13.374a.7.7 0 0 1 .988.06 6.563 6.563 0 0 1 1.652 4.363.7.7 0 1 1-1.4 0c0-1.318-.49-2.52-1.3-3.434a.7.7 0 0 1 .06-.989Zm-9.83 3.723a.7.7 0 0 1 .7.7c0 1.57.697 2.976 1.8 3.928a.7.7 0 1 1-.914 1.06 6.572 6.572 0 0 1-2.286-4.988.7.7 0 0 1 .7-.7ZM12.7 8.512v2.874a2.883 2.883 0 0 1 0 5.592v.335a.7.7 0 1 1-1.4 0v-.335a2.883 2.883 0 0 1-2.182-2.796.7.7 0 1 1 1.4 0c0 .565.317 1.056.782 1.306v-2.874a2.883 2.883 0 0 1 0-5.592v-.335a.7.7 0 1 1 1.4 0v.335a2.883 2.883 0 0 1 2.182 2.796.7.7 0 0 1-1.4 0c0-.565-.317-1.056-.782-1.306Zm-1.4 0a1.481 1.481 0 0 0 0 2.613V8.512Zm1.4 4.364v2.612a1.481 1.481 0 0 0 0-2.612Z" fill="#fff"/></svg>