<svg width="24" height="24" fill="none" xmlns="http://www.w3.org/2000/svg"><path fill-rule="evenodd" clip-rule="evenodd" d="M8 3.6h.75a2.15 2.15 0 0 1 2.15 2.15v.65H8a1.4 1.4 0 1 1 0-2.8ZM5 5a3 3 0 0 1 3-3h.75c1.39 0 2.602.756 3.25 1.878A3.748 3.748 0 0 1 15.25 2H16a3 3 0 0 1 2.236 5H20a2 2 0 0 1 2 2v1a2 2 0 0 1-2 2h-.2v7a2.8 2.8 0 0 1-2.8 2.8H7A2.8 2.8 0 0 1 4.2 19v-7H4a2 2 0 0 1-2-2V9a2 2 0 0 1 2-2h1.764A2.989 2.989 0 0 1 5 5Zm.8 7v3.261h5.4V12H5.8Zm7 0v3.261h5.4V12h-5.4Zm2.45-8.4H16a1.4 1.4 0 1 1 0 2.8h-2.9v-.65a2.15 2.15 0 0 1 2.15-2.15ZM12.8 16.861h5.4V19a1.2 1.2 0 0 1-1.2 1.2h-4.2v-3.339Zm-1.6 0V20.2H7A1.2 1.2 0 0 1 5.8 19v-2.139h5.4ZM4 10.4h16a.4.4 0 0 0 .4-.4V9a.4.4 0 0 0-.4-.4H4a.4.4 0 0 0-.4.4v1c0 .22.18.4.4.4Z" fill="#fff"/></svg>