<svg width="24" height="24" fill="none" xmlns="http://www.w3.org/2000/svg"><path d="m12.01 20-.298-.124C11.352 19.732 3 16.217 3 10.21c0-1.567.566-2.958 1.586-3.917.988-.927 2.337-1.38 3.8-1.278 1.524.103 2.625.63 3.614 1.742.989-1.113 2.09-1.639 3.614-1.742 1.463-.103 2.812.35 3.8 1.278C20.444 7.251 21 8.642 21 10.21c0 6.009-8.362 9.513-8.712 9.667L12.01 20ZM7.994 6.56c-.916 0-1.74.31-2.348.876-.71.66-1.101 1.65-1.101 2.783 0 4.411 6.044 7.452 7.465 8.101 1.421-.65 7.466-3.69 7.466-8.1 0-1.135-.391-2.124-1.102-2.784-.67-.628-1.617-.937-2.636-.865-1.38.092-2.193.597-3.09 1.896l-.638.917-.638-.917c-.896-1.309-1.71-1.804-3.09-1.896-.092-.01-.195-.01-.288-.01Z" fill="#fff"/></svg>