<svg width="24" height="24" fill="none" xmlns="http://www.w3.org/2000/svg"><path fill-rule="evenodd" clip-rule="evenodd" d="M17.812 7.113c-.296-1.081-.962-2.071-1.934-2.86C15.17 3.687 13.934 3 12 3c-1.934 0-3.17.677-3.878 1.253-.973.789-1.649 1.779-1.934 2.86-.465 1.729-.064 3.487 1.173 5.104 1.423 1.855 1.479 2.534 1.563 3.55v.008l.011.1a.928.928 0 0 0 .94.83h4.28c.487 0 .899-.364.93-.83l.011-.1v-.006c.085-1.018.14-1.685 1.564-3.552 1.215-1.617 1.617-3.385 1.152-5.104Zm-2.452 4.205c-1.416 1.85-1.701 2.78-1.817 3.87h-3.086c-.116-1.09-.402-2.02-1.818-3.87-.961-1.253-1.268-2.537-.919-3.83.211-.769.719-1.507 1.427-2.083.496-.404 1.405-.889 2.853-.889 1.447 0 2.346.485 2.853.89.719.575 1.226 1.323 1.427 2.091.348 1.284.042 2.568-.92 3.82ZM14.03 17.3H9.96c-.433 0-.792.344-.792.758 0 .414.359.758.792.758h4.069c.433 0 .792-.344.792-.758 0-.414-.348-.758-.792-.758Zm.01 2.153C13.84 20.333 13.004 21 12 21c-1.003 0-1.848-.667-2.028-1.546h4.068Z" fill="#fff"/></svg>