<svg width="32" height="32" fill="none" xmlns="http://www.w3.org/2000/svg"><path fill-rule="evenodd" clip-rule="evenodd" d="M5.726 13.798a.215.215 0 0 0 .068.365l3.293 1.374A19.22 19.22 0 0 0 8.2 18.44l5.163 5.2c.984-.22 1.95-.517 2.886-.89l1.366 3.312a.213.213 0 0 0 .349.069l2.063-2.077a3.439 3.439 0 0 0 .993-2.595l-.073-1.334c3.82-2.839 7.685-7.816 8.739-16.503a1.433 1.433 0 0 0-.4-1.202 1.414 1.414 0 0 0-1.193-.409c-8.631 1.068-13.58 4.96-16.402 8.793l-1.322-.069a3.394 3.394 0 0 0-2.58.986l-2.064 2.076Zm3.477-.662-.198.2.852.355a2 2 0 0 1 1.09 2.578c-.201.513-.378 1.036-.53 1.565l3.56 3.586c.518-.151 1.03-.327 1.533-.528a2 2 0 0 1 2.59 1.096l.34.828.17-.17c.281-.284.433-.677.414-1.082v-.004l-.073-1.324a2 2 0 0 1 .804-1.715c3.29-2.445 6.749-6.744 7.852-14.424C20 5.216 15.732 8.69 13.303 11.99a2 2 0 0 1-1.714.811l-1.329-.069a1.394 1.394 0 0 0-1.057.403Z" fill="#fff"/><path d="M5.178 24.144a3.332 3.332 0 0 0-1.703-.137.313.313 0 0 1-.346-.437c.604-1.308 2.208-3.938 5.112-1.814a.146.146 0 0 1 0 .218 3.18 3.18 0 0 0-1.201 2.598.23.23 0 0 0 .221.223 3.142 3.142 0 0 0 2.583-1.182.144.144 0 0 1 .225 0c.403.482 1.512 2.059.283 3.58a3.187 3.187 0 0 1-2.14 1.143c-1.192.129-3.394.52-4.294 1.554a.309.309 0 0 1-.534-.115c-.318-1.09-.812-3.53 1.794-5.631Z" fill="#fff"/><path fill-rule="evenodd" clip-rule="evenodd" d="M19.9 12.6a.8.8 0 1 0 0-1.6.8.8 0 0 0 0 1.6Zm0 2a2.8 2.8 0 1 0 0-5.6 2.8 2.8 0 0 0 0 5.6Z" fill="#fff"/></svg>