<svg width="24" height="24" fill="none" xmlns="http://www.w3.org/2000/svg"><path fill-rule="evenodd" clip-rule="evenodd" d="m19.167 13.35-.073.408.236.34c.44.634.67 1.366.67 2.137A3.77 3.77 0 0 1 16.235 20c-.769 0-1.5-.23-2.134-.67l-.341-.237-.409.075A7.27 7.27 0 0 1 4.707 12c0-.434.04-.886.125-1.347l.075-.41-.237-.342A3.71 3.71 0 0 1 4 7.764 3.77 3.77 0 0 1 7.764 4a3.7 3.7 0 0 1 2.134.67l.342.237.409-.075c4.67-.847 8.644 2.704 8.644 7.168 0 .432-.042.887-.126 1.35Zm.984.178A8.618 8.618 0 0 0 20.293 12c0-5.07-4.52-9.114-9.823-8.151A4.7 4.7 0 0 0 7.764 3 4.77 4.77 0 0 0 3 7.764c0 .976.292 1.907.849 2.708A8.467 8.467 0 0 0 3.707 12c0 5.07 4.522 9.114 9.823 8.151.8.557 1.732.849 2.705.849A4.77 4.77 0 0 0 21 16.235a4.71 4.71 0 0 0-.849-2.707Zm-8.04 2.222c1.414 0 2.889-.753 2.889-2.379 0-1.392-1.272-1.872-2.342-2.125l-.782-.192-.013-.003c-.567-.143-.99-.248-.99-.71 0-.424.423-.616 1.084-.616.662 0 .96.288 1.223.542.206.2.39.378.712.378.489 0 .782-.41.782-.874 0-.921-1.437-1.521-2.86-1.521-1.302 0-2.814.6-2.814 2.225 0 1.346.845 1.827 1.942 2.107l1.1.288.104.027c.609.159.98.255.98.741 0 .41-.43.72-1.09.72-.792 0-1.157-.398-1.474-.742-.24-.261-.452-.491-.8-.491-.528 0-.76.4-.76.84 0 .984 1.415 1.785 3.108 1.785Z" fill="#fff"/></svg>