<svg width="24" height="24" fill="none" xmlns="http://www.w3.org/2000/svg"><path d="M21.886 19.84c-.073-.107-1.844-2.687-5.923-3.638a.69.69 0 0 0-.71.262.67.67 0 0 0 .397 1.051 10.1 10.1 0 0 1 1.516.48c-1.888 1.52-7.356 2.189-11.197 1.212-.782-.199-2.604-.775-2.604-1.814 0-6.176 6.528-10.273 8.989-11.814l.213-.139a.63.63 0 0 1 .693 0l1.581 1.044a.62.62 0 0 1 .277.535v.89a.625.625 0 0 1-.186.445.64.64 0 0 1-.448.185h-3.515a.687.687 0 0 0-.506.221.67.67 0 0 0-.172.52c.442 3.93-2.305 6.529-2.334 6.555a.672.672 0 0 0 .443 1.168.688.688 0 0 0 .49-.181 9.27 9.27 0 0 0 1.678-2.261c1.088-.944 3.4-.917 4.224-.824a.702.702 0 0 0 .705-.405c1.265-2.916 5.663-2.962 5.709-2.962a.687.687 0 0 0 .482-.198.67.67 0 0 0 0-.953.687.687 0 0 0-.482-.198c-.21 0-4.927.04-6.744 3.339a9.896 9.896 0 0 0-3.117.326 9.091 9.091 0 0 0 .36-2.798h2.784c.53-.001 1.038-.21 1.413-.58.374-.37.585-.872.586-1.396V7.02a1.953 1.953 0 0 0-.233-.931 1.98 1.98 0 0 0-.651-.713l-1.586-1.041a2.016 2.016 0 0 0-2.187-.024l-.214.137C8.987 6.095 2 10.48 2 17.396c0 1.004.63 2.357 3.627 3.12 1.44.336 2.915.497 4.394.48 3.35 0 6.938-.72 8.442-2.361a8.01 8.01 0 0 1 2.288 1.947.684.684 0 0 0 .912.143.667.667 0 0 0 .223-.886Z" fill="#fff"/></svg>